<svg data-v-423bf9ae="" xmlns="http://www.w3.org/2000/svg" viewBox="0 0 519.4555885963779 60" class="font"><!----><!----><!----><g data-v-423bf9ae="" id="00d95443-ede3-4825-93c7-74d8c11e5d79" fill="white" transform="matrix(4.297994257596313,0,0,4.297994257596313,-2.406877816380131,-0.17192021833139037)"><path d="M10.68 1.29L10.58 0.70L6.86 0.70L6.76 1.29L7.98 1.75L7.98 5.15L3.26 5.15L3.26 1.75L4.48 1.29L4.38 0.70L0.66 0.70L0.56 1.29L1.78 1.75L1.78 9.45L0.57 9.91L0.69 10.50L4.35 10.50L4.45 9.91L3.26 9.45L3.26 5.74L7.98 5.74L7.98 9.45L6.76 9.91L6.86 10.50L10.56 10.50L10.65 9.91L9.46 9.45L9.46 1.75ZM15.09 3.81C13.02 3.81 11.80 5.12 11.80 7.22C11.80 9.32 12.88 10.65 15.09 10.65C17.32 10.65 18.38 9.38 18.38 7.22C18.38 5.07 17.16 3.81 15.09 3.81ZM15.09 4.33C16.27 4.33 17.02 5.39 17.02 7.18C17.02 8.96 16.28 10.14 15.09 10.14C13.90 10.14 13.16 8.95 13.16 7.18C13.16 5.42 13.93 4.33 15.09 4.33ZM20.34 0.70L20.34 9.38C20.34 10.36 21.03 10.65 21.55 10.65C21.92 10.65 22.29 10.60 22.48 10.50L22.48 10.00C22.05 10.00 21.66 9.79 21.66 9.35L21.66 0.70C21.66 0.70 21.67 0.04 20.90 0.04C20.44 0.04 19.82 0.14 19.50 0.20L19.50 0.70ZM24.44 0.70L24.44 9.38C24.44 10.36 25.13 10.65 25.65 10.65C26.03 10.65 26.39 10.60 26.59 10.50L26.59 10.00C26.15 10.00 25.76 9.79 25.76 9.35L25.76 0.70C25.76 0.70 25.77 0.04 25.00 0.04C24.54 0.04 23.93 0.14 23.60 0.20L23.60 0.70ZM27.94 8.15C27.94 9.65 28.84 10.50 30.37 10.50C31.46 10.50 32.30 9.74 32.62 8.75L32.34 10.35L32.34 11.16C32.34 12.74 31.46 13.26 30.48 13.26C29.44 13.26 28.91 12.74 28.91 12.17C28.91 11.82 29.12 11.44 29.54 11.21L29.26 10.79C28.67 11.00 28 11.54 28 12.25C28 13.41 29.15 14 30.48 14C32.14 14 33.66 13.22 33.66 11.10L33.66 3.96L33.17 3.81L32.34 3.96L32.34 7.21C32.34 9.16 31.30 9.98 30.60 9.98C30.03 9.98 29.26 9.69 29.26 8.41L29.26 4.45C29.26 4.45 29.27 3.79 28.50 3.79C28.04 3.79 27.54 3.91 27.22 3.95L27.22 4.45L27.94 4.45ZM40.03 7.77C40.03 9.39 39.84 11.14 37.93 12.43L38.23 12.95C40.85 12.10 41.50 10.08 41.50 8.13L41.50 1.75L42.73 1.29L42.62 0.70L38.92 0.70L38.81 1.29L40.03 1.75L40.03 7.77ZM46.72 3.81C44.65 3.81 43.43 5.12 43.43 7.22C43.43 9.32 44.51 10.65 46.72 10.65C48.94 10.65 50.01 9.38 50.01 7.22C50.01 5.07 48.79 3.81 46.72 3.81ZM46.72 4.33C47.89 4.33 48.65 5.39 48.65 7.18C48.65 8.96 47.91 10.14 46.72 10.14C45.53 10.14 44.79 8.95 44.79 7.18C44.79 5.42 45.56 4.33 46.72 4.33ZM51.97 0.70L51.97 9.38C51.97 10.36 52.65 10.65 53.17 10.65C53.55 10.65 53.91 10.60 54.11 10.50L54.11 10.00C53.68 10.00 53.28 9.79 53.28 9.35L53.28 0.70C53.28 0.70 53.30 0.04 52.53 0.04C52.07 0.04 51.45 0.14 51.13 0.20L51.13 0.70ZM56.07 0.70L56.07 9.38C56.07 10.36 56.76 10.65 57.27 10.65C57.65 10.65 58.02 10.60 58.21 10.50L58.21 10.00C57.78 10.00 57.39 9.79 57.39 9.35L57.39 0.70C57.39 0.70 57.40 0.04 56.63 0.04C56.17 0.04 55.55 0.14 55.23 0.20L55.23 0.70ZM59.57 8.15C59.57 9.65 60.47 10.50 61.99 10.50C63.08 10.50 63.92 9.74 64.25 8.75L63.97 10.35L63.97 11.16C63.97 12.74 63.08 13.26 62.10 13.26C61.07 13.26 60.54 12.74 60.54 12.17C60.54 11.82 60.75 11.44 61.17 11.21L60.89 10.79C60.30 11.00 59.63 11.54 59.63 12.25C59.63 13.41 60.77 14 62.10 14C63.77 14 65.28 13.22 65.28 11.10L65.28 3.96L64.79 3.81L63.97 3.96L63.97 7.21C63.97 9.16 62.93 9.98 62.23 9.98C61.66 9.98 60.89 9.69 60.89 8.41L60.89 4.45C60.89 4.45 60.90 3.79 60.13 3.79C59.67 3.79 59.16 3.91 58.84 3.95L58.84 4.45L59.57 4.45ZM77.64 9.30C76.83 9.79 75.53 9.91 75.03 9.91C72.25 9.91 71.69 7.69 71.69 5.53C71.69 2.53 72.79 1.15 75.03 1.15C75.45 1.15 75.95 1.22 76.43 1.32L76.86 3.15C77.55 3.15 78.11 2.73 78.11 2.04C78.11 0.66 76.09 0.46 75.03 0.46C71.61 0.46 70.04 3.01 70.04 5.60C70.04 8.19 71.39 10.74 75.03 10.74C76.19 10.74 77.41 10.42 78.11 9.91ZM81.55 10.65C82.24 10.65 82.95 10.28 83.27 9.60C83.47 10.39 84.01 10.65 84.50 10.65C84.77 10.65 85.05 10.61 85.27 10.50L85.27 10.00C84.84 10.00 84.50 9.79 84.50 9.35L84.50 3.96L84.01 3.81L83.19 4.03C82.84 3.85 82.39 3.81 81.97 3.81C80.21 3.81 78.76 4.90 78.76 7.57C78.76 9.83 80.18 10.65 81.55 10.65ZM83.19 7.77C83.19 9.37 82.39 10.00 81.69 10.00C80.92 10.00 80.12 9.45 80.12 7.50C80.12 5.08 81.14 4.33 82.04 4.33C82.46 4.33 82.74 4.40 83.19 4.65ZM87.84 2.34L87.19 2.18L86.60 3.65L85.61 3.96L85.71 4.47L86.52 4.47L86.52 8.85C86.52 9.87 87.08 10.65 88.37 10.65C89.17 10.65 89.57 10.33 90.03 9.84L89.71 9.46C89.42 9.79 89.11 10.00 88.61 10.00C88.19 10.00 87.84 9.62 87.84 8.96L87.84 4.47L89.57 4.47L89.67 3.96L87.84 3.96ZM96.60 5.78C96.60 4.34 95.51 3.81 93.88 3.81C91.92 3.81 90.52 5.07 90.52 7.22C90.52 9.30 91.69 10.65 94.16 10.65C95.07 10.65 95.97 10.37 96.57 9.83L96.25 9.37C95.68 9.73 94.99 10.00 94.25 10.00C92.97 10.00 92.26 9.14 92.06 7.87C94.43 7.87 96.60 7.49 96.60 5.78ZM92.01 7.11C92.01 5.52 92.62 4.33 93.83 4.33C94.79 4.33 95.28 4.73 95.28 5.61C95.28 6.65 93.84 7.36 92.01 7.38ZM98.36 4.47L98.36 10.50L99.68 10.50L99.68 7.39C99.68 5.42 100.80 4.47 101.47 4.47L101.86 5.36C102.31 5.36 102.66 5.04 102.66 4.62C102.66 4.20 102.40 3.81 101.67 3.81C100.94 3.81 100.04 4.42 99.68 5.43L99.68 4.66C99.68 4.66 99.69 3.81 98.92 3.81C98.46 3.81 97.90 3.91 97.58 3.96L97.58 4.47ZM104.82 0.74C104.40 0.74 104.06 1.08 104.06 1.50C104.06 1.92 104.40 2.25 104.82 2.25C105.22 2.25 105.57 1.92 105.57 1.50C105.57 1.08 105.22 0.74 104.82 0.74ZM105.52 4.47C105.52 4.47 105.53 3.81 104.76 3.81C104.30 3.81 103.68 3.91 103.36 3.96L103.36 4.47L104.20 4.47L104.20 10.50L105.52 10.50ZM109.34 4.47C109.34 4.47 109.35 3.81 108.58 3.81C108.12 3.81 107.51 3.91 107.18 3.96L107.18 4.47L108.02 4.47L108.02 10.50L109.34 10.50L109.34 7.39C109.34 5.32 110.38 4.47 111.09 4.47C111.79 4.47 112.22 5.05 112.22 5.95L112.22 9.38C112.22 10.36 112.91 10.65 113.43 10.65C113.81 10.65 114.17 10.60 114.37 10.50L114.37 10.00C113.93 10.00 113.54 9.79 113.54 9.35L113.54 6.30C113.54 4.76 112.90 3.81 111.37 3.81C110.64 3.81 109.69 4.45 109.34 5.43ZM116.80 7.53C116.80 5.42 117.60 4.33 118.78 4.33C119.27 4.33 119.71 4.47 120.11 4.59L120.11 7.07C120.11 9.04 119.07 9.84 118.37 9.84C117.53 9.84 116.80 9.34 116.80 7.53ZM121.42 3.96L120.93 3.81L120.11 4.03C119.76 3.89 119.17 3.81 118.75 3.81C116.62 3.81 115.35 5.26 115.35 7.60C115.35 9.65 116.40 10.50 118.08 10.50C119.24 10.50 120.06 9.74 120.39 8.75L120.11 10.35L120.11 11.40C120.11 12.98 119.22 13.36 118.24 13.36C117.21 13.36 116.65 12.73 116.65 12.15C116.65 11.80 116.89 11.40 117.31 11.17L117.03 10.75C116.44 10.96 115.74 11.52 115.74 12.24C115.74 13.40 116.91 14 118.24 14C119.91 14 121.42 13.36 121.42 11.24Z"></path></g><!----><!----></svg>